<svg id="Layer_1" data-name="Layer 1" xmlns="http://www.w3.org/2000/svg" viewBox="0 0 979.97 629.5"><defs><style>.cls-1{fill:#008b38;}</style></defs><path class="cls-1" d="M439.68,2.83C386.09,11.06,343.4,30.58,318.9,57.57c-8.23,9-12.06,15.31-17.61,29.86-12.82,33.88-25.07,54.74-46.7,80.2-28.71,34.26-68.14,61.44-137.81,95.51-26.8,13.21-53.4,26.22-59.15,29.09s-12.25,7.47-14.16,10.34c-3.64,4.79-3.64,5.36-.58,9.95,28.14,43.07,390.86,67.76,673,45.94,126-9.76,208.83-26.8,221.27-45.56,5.93-9.38-1.34-15.7-33.69-28.71C857,265.05,808.71,237.1,773.88,209c-38.09-30.82-72.74-73.69-90.54-112.55-13.21-28.52-14-30-23.54-40.58C636.07,30,592.42,10.67,538.83,2.63,515.09-1,462.84-.81,439.68,2.83ZM349,165.14c19.72,8.23,24.5,33.88,9.19,49.19-12.44,12.44-30.05,12.44-42.49,0C291.91,190.79,318.13,152.12,349,165.14Zm306.26,0c19.71,8.23,24.5,33.88,9.19,49.19-21.44,21.63-56.66,2.3-51.11-28C616.73,168.39,637.79,157.68,655.21,165.14ZM452.89,186.58c9,4.21,14.55,12.82,15.69,23.93,1,11.29-1.91,19.33-9.57,25.65-13.21,11.29-30.63,10.14-42.3-2.68-9.38-10.34-10.72-20.29-4.79-32.35C420,185.05,436.81,178.92,452.89,186.58Zm102.21-.19c11.87,6.13,18.95,22,15.5,34.84-2.68,9.19-12.63,19.33-21.63,21.82-13.59,3.64-30.63-4.59-36-17.42-3.25-7.85-1.53-23.16,3.45-30C524.28,184.47,542.85,180.07,555.1,186.39Z"/><path class="cls-1" d="M8.24,331.28c-12.63,13.78-10.71,26.61,5.56,40.77,17.41,14.74,58.76,31,108.52,42.5l23.54,5.36,4.4,8.61c5.55,10.91,21.25,26.6,37.71,37.52,12.44,8.23,43.07,23.74,47.09,23.74a4.29,4.29,0,0,1,3.06,1.53c.38.77-6.7,32-16.08,69.29s-16.84,68.14-16.65,68.33c.38.19,17.8-27.18,38.66-60.87,21.06-33.5,39.24-61.06,40.58-61.06,1.15,0,11.1,2.1,22,4.59,54.93,12.83,98.19,17.23,171.88,17.23,69.87.19,114.46-4,166.14-15.31,7.66-1.72,14.36-2.87,14.55-2.49.38.38,17.23,27.18,37.32,59.53,20.29,32.54,37.13,59,37.33,59,.38,0-6.51-28.71-15.31-63.55-8.81-35-16.08-64.7-16.08-65.84s7.47-4.79,16.84-8.42c42.49-16.08,77.9-40.58,88.43-61.25,3.25-6.51,4.21-6.89,18.37-9.38,40.58-6.7,95.7-23.35,119.82-36,33.88-17.61,43.07-38.28,24.88-54.74-3.83-3.45-4-3.25-13.4,3.25C910.9,367.09,789.16,392.35,618.23,404c-46.71,3.06-209.79,3.06-256.49,0-122.31-8.42-212.65-22.4-277-42.69-26.19-8.43-60.83-24.12-66.57-30.44C13.8,326.12,13,326.12,8.24,331.28Z"/></svg>